<?xml version="1.0" encoding="utf-8"?>
<!-- Generator: Adobe Illustrator 17.0.0, SVG Export Plug-In . SVG Version: 6.00 Build 0)  -->
<!DOCTYPE svg PUBLIC "-//W3C//DTD SVG 1.1//EN" "http://www.w3.org/Graphics/SVG/1.1/DTD/svg11.dtd">
<svg version="1.1" id="Layer_1" xmlns="http://www.w3.org/2000/svg" xmlns:xlink="http://www.w3.org/1999/xlink" x="0px" y="0px"
	 width="133px" height="109.857px" viewBox="0 0 133 109.857" enable-background="new 0 0 133 109.857" xml:space="preserve">
<g>
	<path d="M57.128,100.309c0.224-0.092,0.425-0.251,0.597-0.499c2.839-2.491,2.228-3.894,0.534-4.681
		c-0.005-0.058-0.009-0.114-0.014-0.174c-1.002-11.541-16.562-15.988-16.562-15.988s1.312,4.701,8.303,15.276
		c-16.106,1.48-21.771,3.945-21.771,3.945s15.848,11.07,27.297,3.302C56.126,101.073,56.664,100.679,57.128,100.309z"/>
	<path d="M32.179,93.108c0.688-0.131,1.285-0.271,1.824-0.419c0.225,0.006,0.457-0.061,0.694-0.207
		c3.334-1.078,3.341-2.499,2.187-3.798c0.019-0.055,0.037-0.1,0.055-0.154c3.42-10.245-8.248-19.813-8.248-19.813
		s-0.615,4.517,1.448,16.15c-14.313-4.693-20.091-4.695-20.091-4.695S19.506,95.512,32.179,93.108z"/>
	<path d="M19.337,77.322c0.21,0.068,0.446,0.072,0.711,0.002c3.507-0.07,3.926-1.43,3.195-3.007
		c0.033-0.046,0.064-0.084,0.097-0.132c6.227-8.825-2.186-21.352-2.186-21.352s-1.891,4.147-3.269,15.88
		C5.532,60.097,0,58.429,0,58.429s4.634,17.414,17.462,18.768C18.162,77.27,18.776,77.307,19.337,77.322z"/>
	<path d="M7.718,56.5c0.518,0.3,0.982,0.542,1.413,0.749c0.143,0.132,0.332,0.22,0.571,0.257c2.759,1.166,3.558,0.25,3.539-1.235
		c0.042-0.024,0.079-0.043,0.122-0.069c7.948-4.722,5.75-17.448,5.75-17.448s-2.927,2.58-8.102,11.27
		C4.367,38.972,0.627,35.735,0.627,35.735S-1.834,50.965,7.718,56.5z"/>
	<path d="M7.293,35.989c0.382,0.332,0.73,0.608,1.055,0.849c0.097,0.129,0.237,0.231,0.426,0.301
		c2.104,1.409,2.914,0.778,3.134-0.458c0.039-0.015,0.073-0.024,0.112-0.038c7.343-2.647,7.551-13.551,7.551-13.551
		s-2.838,1.673-8.516,8.053C7.311,20.92,4.726,17.641,4.726,17.641S0.255,29.875,7.293,35.989z"/>
	<path d="M14.087,20.578C21.071,13.251,23.338,0,23.338,0C15.353,5.339,7.102,27.906,14.087,20.578z"/>
	<path d="M91.318,78.968c0,0-15.562,4.447-16.563,15.988c-0.004,0.06-0.009,0.116-0.013,0.174c-1.694,0.787-2.305,2.188,0.533,4.681
		c0.172,0.248,0.373,0.407,0.598,0.499c0.466,0.37,1.002,0.764,1.617,1.183c11.449,7.771,27.296-3.302,27.296-3.302
		s-5.664-2.465-21.771-3.945C90.007,83.669,91.318,78.968,91.318,78.968z"/>
	<path d="M104.311,68.716c0,0-11.666,9.568-8.248,19.813c0.02,0.055,0.037,0.101,0.056,0.154c-1.154,1.299-1.146,2.72,2.188,3.798
		c0.236,0.146,0.469,0.213,0.692,0.207c0.539,0.146,1.138,0.288,1.823,0.419c12.675,2.403,22.131-12.938,22.131-12.938
		s-5.777,0.002-20.092,4.695C104.926,73.232,104.311,68.716,104.311,68.716z"/>
	<path d="M115.115,68.714c-1.379-11.731-3.271-15.88-3.271-15.88s-8.41,12.525-2.185,21.352c0.032,0.048,0.063,0.086,0.098,0.132
		c-0.729,1.578-0.312,2.936,3.195,3.007c0.265,0.07,0.501,0.066,0.711-0.002c0.562-0.015,1.176-0.052,1.875-0.125
		C128.368,75.844,133,58.429,133,58.429S127.468,60.097,115.115,68.714z"/>
	<path d="M113.889,38.753c0,0-2.197,12.728,5.75,17.448c0.043,0.025,0.079,0.044,0.121,0.069c-0.02,1.485,0.779,2.4,3.536,1.235
		c0.242-0.037,0.433-0.126,0.577-0.26c0.43-0.206,0.893-0.448,1.408-0.747c9.556-5.535,7.093-20.765,7.093-20.765
		s-3.739,3.237-10.384,14.286C116.814,41.333,113.889,38.753,113.889,38.753z"/>
	<path d="M113.432,23.091c0,0,0.205,10.903,7.549,13.551c0.039,0.014,0.072,0.023,0.111,0.038c0.221,1.236,1.03,1.867,3.135,0.458
		c0.189-0.068,0.33-0.171,0.428-0.301c0.324-0.24,0.673-0.517,1.055-0.849c7.039-6.114,2.566-18.348,2.566-18.348
		s-2.584,3.279-6.33,13.502C116.27,24.763,113.432,23.091,113.432,23.091z"/>
	<path d="M109.663,0c0,0,2.269,13.251,9.251,20.578C125.898,27.906,117.648,5.339,109.663,0z"/>
	<polygon points="67.461,98.533 76.834,110.219 79.157,108.092 68.327,97.739 	"/>
	<polygon points="52.999,107.535 55.127,109.857 65.479,99.028 64.686,98.165 	"/>
</g>
<g>
	<path d="M27.567,30.303c0.896,0.459,2.272,0.918,3.693,0.918c1.53,0,2.338-0.634,2.338-1.595c0-0.918-0.699-1.442-2.469-2.076
		c-2.447-0.852-4.042-2.207-4.042-4.348c0-2.513,2.098-4.436,5.572-4.436c1.661,0,2.884,0.35,3.758,0.743l-0.743,2.688
		c-0.59-0.284-1.639-0.699-3.081-0.699c-1.442,0-2.142,0.656-2.142,1.42c0,0.939,0.831,1.354,2.731,2.076
		c2.6,0.961,3.824,2.316,3.824,4.392c0,2.469-1.901,4.566-5.943,4.566c-1.683,0-3.343-0.437-4.173-0.896L27.567,30.303z"/>
	<path d="M39.258,19.202c1.027-0.175,2.469-0.306,4.501-0.306c2.054,0,3.518,0.393,4.501,1.18c0.94,0.743,1.573,1.967,1.573,3.409
		c0,1.442-0.48,2.666-1.354,3.496c-1.136,1.071-2.819,1.551-4.785,1.551c-0.437,0-0.831-0.021-1.136-0.065v5.266h-3.299V19.202z
		 M42.557,25.889c0.284,0.065,0.633,0.087,1.114,0.087c1.77,0,2.862-0.896,2.862-2.404c0-1.354-0.939-2.163-2.6-2.163
		c-0.677,0-1.136,0.065-1.376,0.131V25.889z"/>
	<path d="M60.714,27.506h-5.419v3.496h6.053v2.731h-9.396V19.006h9.09v2.731h-5.747v3.059h5.419V27.506z"/>
	<path d="M74.437,33.318c-0.611,0.306-1.988,0.633-3.78,0.633c-5.091,0-7.713-3.168-7.713-7.363c0-5.026,3.583-7.823,8.042-7.823
		c1.726,0,3.037,0.35,3.627,0.656l-0.678,2.644c-0.677-0.284-1.616-0.546-2.797-0.546c-2.644,0-4.698,1.595-4.698,4.873
		c0,2.95,1.749,4.807,4.72,4.807c1.005,0,2.119-0.219,2.774-0.48L74.437,33.318z"/>
	<path d="M79.965,19.006v14.727h-3.344V19.006H79.965z"/>
	<path d="M86.279,29.953l-1.049,3.78h-3.452l4.501-14.727h4.37l4.566,14.727h-3.583l-1.137-3.78H86.279z M90.016,27.462
		l-0.918-3.125c-0.262-0.874-0.524-1.966-0.743-2.84h-0.043c-0.219,0.874-0.438,1.988-0.678,2.84l-0.874,3.125H90.016z"/>
	<path d="M97.183,19.006h3.343v11.93h5.856v2.797h-9.199V19.006z"/>
	<path d="M32.407,45.226h3.299v6.512h0.065c0.328-0.568,0.677-1.093,1.005-1.617l3.343-4.895h4.086l-4.873,6.271l5.135,8.456h-3.89
		l-3.605-6.358l-1.267,1.552v4.806h-3.299V45.226z"/>
	<path d="M49.145,45.226v8.479c0,2.534,0.961,3.823,2.666,3.823c1.748,0,2.709-1.224,2.709-3.823v-8.479h3.321v8.26
		c0,4.544-2.294,6.708-6.14,6.708c-3.714,0-5.899-2.054-5.899-6.751v-8.216H49.145z"/>
	<path d="M60.725,45.423c1.224-0.197,2.819-0.306,4.501-0.306c2.797,0,4.611,0.502,6.031,1.573c1.529,1.136,2.491,2.95,2.491,5.55
		c0,2.818-1.027,4.762-2.447,5.964c-1.552,1.289-3.911,1.901-6.796,1.901c-1.726,0-2.95-0.109-3.78-0.219V45.423z M64.068,57.44
		c0.284,0.065,0.743,0.065,1.158,0.065c3.015,0.021,4.982-1.639,4.982-5.156c0.022-3.06-1.77-4.677-4.632-4.677
		c-0.743,0-1.224,0.066-1.508,0.131V57.44z"/>
	<path d="M89.415,52.437c0,4.829-2.928,7.756-7.232,7.756c-4.37,0-6.927-3.299-6.927-7.494c0-4.414,2.818-7.714,7.167-7.714
		C86.945,44.986,89.415,48.372,89.415,52.437z M78.773,52.633c0,2.884,1.354,4.917,3.584,4.917c2.25,0,3.539-2.141,3.539-5.003
		c0-2.644-1.267-4.917-3.562-4.917C80.085,47.63,78.773,49.771,78.773,52.633z"/>
	<path d="M91.709,56.522c0.896,0.459,2.272,0.918,3.693,0.918c1.529,0,2.338-0.634,2.338-1.595c0-0.917-0.699-1.442-2.47-2.076
		c-2.447-0.853-4.042-2.207-4.042-4.349c0-2.513,2.098-4.436,5.572-4.436c1.66,0,2.884,0.35,3.758,0.743l-0.743,2.688
		c-0.59-0.284-1.639-0.699-3.08-0.699c-1.442,0-2.142,0.655-2.142,1.42c0,0.939,0.83,1.355,2.731,2.076
		c2.6,0.961,3.823,2.316,3.823,4.391c0,2.47-1.9,4.567-5.943,4.567c-1.683,0-3.343-0.438-4.173-0.896L91.709,56.522z"/>
</g>
</svg>
