<?xml version="1.0" encoding="utf-8"?>
<!-- Generator: Adobe Illustrator 17.0.0, SVG Export Plug-In . SVG Version: 6.00 Build 0)  -->
<!DOCTYPE svg PUBLIC "-//W3C//DTD SVG 1.1//EN" "http://www.w3.org/Graphics/SVG/1.1/DTD/svg11.dtd">
<svg version="1.1" id="Layer_1" xmlns="http://www.w3.org/2000/svg" xmlns:xlink="http://www.w3.org/1999/xlink" x="0px" y="0px"
	 width="146px" height="146px" viewBox="0 0 146 146" enable-background="new 0 0 146 146" xml:space="preserve">
<path d="M71.883,144.038c0-1.052,0.858-1.913,1.928-1.913c1.06,0,1.918,0.861,1.918,1.913c0,1.069-0.857,1.922-1.918,1.922
	C72.741,145.96,71.883,145.105,71.883,144.038 M74.832,139.814c0,1.068,0.859,1.924,1.919,1.922c1.062,0,1.924-0.858,1.924-1.922
	c0-1.063-0.862-1.92-1.924-1.92C75.691,137.894,74.832,138.751,74.832,139.814 M68.943,139.814c0,1.068,0.853,1.924,1.919,1.922
	c1.061,0,1.916-0.858,1.916-1.922c0-1.063-0.856-1.92-1.916-1.92C69.796,137.894,68.943,138.751,68.943,139.814 M87.84,132.787
	c0-3.221-2.4-3.221-2.4,0c0,0.163,0.006,0.316,0.017,0.463c-0.976-0.912-2.138-1.799-2.313-1.917
	c-1.936-1.248-4.113-2.132-6.412-2.371c-4.311-0.448-8.338,1.466-11.519,4.261c-0.64,0.563-1.503,3.131-0.366,1.991
	c0.806-0.81,1.67-1.562,2.585-2.237c1.957-1.433,4.215-2.506,6.639-2.799c2.308-0.271,4.617,0.201,6.693,1.202
	c1.366,0.657,4.413,4.011,5.646,4.011c0.307,0,0.452-0.09,0.479-0.232C87.396,134.959,87.84,134.167,87.84,132.787 M58.465,132.787
	c0,1.381,0.45,2.172,0.952,2.372c0.03,0.14,0.173,0.232,0.476,0.232c1.235,0,4.281-3.354,5.652-4.011
	c2.074-1.001,4.389-1.473,6.688-1.202c2.43,0.293,4.688,1.366,6.642,2.799c0.923,0.675,1.783,1.427,2.586,2.237
	c1.137,1.14,0.278-1.428-0.363-1.991c-3.181-2.795-7.213-4.709-11.515-4.261c-2.304,0.239-4.482,1.123-6.409,2.371
	c-0.184,0.118-1.343,1.005-2.322,1.917c0.012-0.147,0.018-0.3,0.018-0.463C60.87,129.566,58.465,129.566,58.465,132.787
	 M56.598,131.707c-2.682-1.714-8.256-1.704-12.241-1.497c-5.412,0.283-8.348,2.905-8.024,3.245
	c2.425,2.527,8.588,3.162,12.819,2.709C54.896,135.543,57.13,132.049,56.598,131.707 M56.788,131.063
	c0.622-0.002,0.289-3.899-2.705-7.82c-2.997-3.926-7.208-6.889-7.683-6.844c-0.868,0.074-1.847,3.746,0.88,7.887
	C49.387,127.471,53.72,131.063,56.788,131.063 M43.186,126.293c-1.996-1.947-6.985-2.889-10.619-3.336
	c-4.931-0.595-8.16,1.389-7.938,1.77c1.613,2.744,7.291,4.293,10.968,4.527C40.835,129.593,43.575,126.675,43.186,126.293
	 M43.499,125.723c0.534,0.104,1.138-3.569-0.695-7.703c-1.841-4.133-5.094-7.597-5.539-7.633c-0.804-0.062-2.428,3.234-0.812,7.514
	C37.698,121.212,40.829,125.188,43.499,125.723 M32.32,119.123c-0.216-0.643-4.605-3.516-9.133-4.823
	c-4.531-1.306-7.887,0.05-7.742,0.423c1.077,2.694,5.695,5.11,9.297,5.981C29.502,121.848,32.538,119.766,32.32,119.123
	 M32.721,118.637c0.67,0.09,1.805-3.166,0.939-7.367c-0.875-4.196-3.279-7.997-3.687-8.101c-0.747-0.192-2.813,2.601-2.188,6.972
	C28.404,114.504,32.049,118.559,32.721,118.637 M23.697,110.637c-0.084-0.64-3.661-4.052-7.708-6.007
	c-4.047-1.95-7.48-1.192-7.405-0.813c0.54,2.703,4.479,5.738,7.702,7.127C20.545,112.772,23.775,111.283,23.697,110.637
	 M24.159,110.243c0.621,0.181,2.313-2.716,2.263-6.841c-0.044-4.119-1.679-8.125-2.051-8.291c-0.674-0.307-3.107,2.037-3.293,6.285
	C20.893,105.654,23.55,110.058,24.159,110.243 M17.377,101.67c0.033-0.617-2.78-4.379-6.312-6.808
	c-3.537-2.43-6.808-2.303-6.899-1.836c-0.159,0.844,2.398,5.502,6.182,7.83C14.13,103.188,17.345,102.286,17.377,101.67
	 M17.884,101.367c0.547,0.265,2.634-2.213,3.243-6.127c0.614-3.911-0.339-7.966-0.672-8.179c-0.594-0.391-3.242,1.487-4.069,5.488
	C15.555,96.556,17.338,101.101,17.884,101.367 M12.65,91.813c0.129-0.596-1.997-4.686-5.063-7.605
	c-3.074-2.917-6.295-3.294-6.452-2.854c-0.283,0.793,1.49,5.717,4.803,8.576C9.248,92.78,12.52,92.405,12.65,91.813 M13.188,91.596
	c0.489,0.343,2.927-1.735,4.153-5.446c1.217-3.715,0.91-7.816,0.619-8.076c-0.522-0.469-3.391,0.949-4.823,4.717
	S12.706,91.252,13.188,91.596 M9.61,81.482c0.214-0.543-1.214-4.787-3.736-8.047c-2.53-3.26-5.581-4.1-5.791-3.706
	c-0.397,0.719,0.607,5.706,3.363,8.931C6.206,81.9,9.397,82.037,9.61,81.482 M10.165,81.368c0.419,0.4,3.074-1.209,4.798-4.593
	c1.723-3.372,2.019-7.384,1.779-7.676c-0.438-0.531-3.39,0.407-5.323,3.811C9.495,76.312,9.748,80.968,10.165,81.368 M8.215,71.128
	c0.286-0.487-0.478-4.798-2.456-8.304c-1.973-3.512-4.801-4.762-5.069-4.408c-0.47,0.637-0.204,5.56,1.993,9.083
	C4.877,71.008,7.932,71.623,8.215,71.128 M8.765,71.095c0.342,0.448,3.139-0.7,5.284-3.694c2.134-3.01,2.979-6.85,2.788-7.173
	c-0.346-0.571-3.327-0.092-5.66,2.911C8.847,66.137,8.428,70.641,8.765,71.095 M8.349,60.839c0.342-0.429,0.208-4.67-1.207-8.33
	c-1.412-3.646-3.953-5.249-4.254-4.951c-0.543,0.537-0.962,5.299,0.658,8.99C5.164,60.231,8.006,61.271,8.349,60.839 M8.88,60.889
	c0.266,0.484,3.11-0.203,5.586-2.779c2.468-2.58,3.806-6.168,3.671-6.503c-0.252-0.614-3.178-0.562-5.834,1.99
	C9.645,56.146,8.614,60.41,8.88,60.889 M9.879,51.083c0.389-0.369,0.844-4.467-0.025-8.187c-0.861-3.715-3.094-5.603-3.42-5.358
	c-0.599,0.444-1.641,4.965-0.586,8.735C6.905,50.046,9.492,51.455,9.879,51.083 M10.387,51.207c0.187,0.499,3.013,0.249,5.747-1.896
	c2.729-2.147,4.511-5.441,4.429-5.788c-0.166-0.621-2.993-0.967-5.893,1.126C11.767,46.749,10.198,50.705,10.387,51.207
	 M12.682,41.891c0.424-0.298,1.41-4.171,1.091-7.854c-0.325-3.678-2.209-5.773-2.557-5.582c-0.636,0.34-2.242,4.535-1.74,8.288
	C9.98,40.498,12.26,42.196,12.682,41.891 M13.151,42.081c0.111,0.509,2.845,0.65,5.761-1.043c2.906-1.707,5.077-4.654,5.037-4.994
	c-0.062-0.626-2.73-1.314-5.799,0.312C15.073,37.992,13.036,41.575,13.151,42.081 M16.617,33.451
	c0.442-0.234,1.925-3.825,2.119-7.407c0.196-3.575-1.325-5.832-1.69-5.696c-0.653,0.256-2.776,4.068-2.807,7.731
	C14.213,31.749,16.169,33.68,16.617,33.451 M17.04,33.691c0.037,0.508,2.639,1.008,5.67-0.258c3.034-1.26,5.542-3.845,5.555-4.179
	c0.029-0.608-2.458-1.599-5.639-0.419C19.446,30.018,17.001,33.187,17.04,33.691 M21.315,26.17c0.456-0.174,2.344-3.427,2.997-6.817
	c0.658-3.39-0.512-5.714-0.881-5.616c-0.659,0.164-3.177,3.549-3.681,7.035C19.247,24.266,20.861,26.34,21.315,26.17 M21.688,26.451
	c-0.032,0.478,2.384,1.273,5.45,0.416c3.071-0.854,5.828-3.049,5.893-3.365c0.101-0.58-2.159-1.803-5.361-1.041
	C24.469,23.235,21.716,25.964,21.688,26.451 M27.043,19.48c0.447-0.099,2.671-2.929,3.746-6.039
	c1.069-3.103,0.269-5.409-0.091-5.367c-0.645,0.082-3.469,2.971-4.406,6.179C25.353,17.455,26.592,19.599,27.043,19.48
	 M27.355,19.792c-0.093,0.452,2.07,1.485,5.089,1.019c3.024-0.457,5.956-2.231,6.058-2.526c0.177-0.533-1.81-1.927-4.954-1.554
	C30.406,17.095,27.449,19.341,27.355,19.792 M33.36,13.875c0.432-0.05,2.901-2.456,4.305-5.227c1.411-2.767,0.944-4.996,0.598-4.985
	c-0.617,0.008-3.636,2.393-4.928,5.267C32.043,11.806,32.924,13.924,33.36,13.875 M33.61,14.188
	c-0.145,0.414,1.74,1.604,4.653,1.494c2.911-0.123,5.935-1.494,6.068-1.76c0.25-0.483-1.468-1.952-4.487-1.929
	C36.827,12.016,33.758,13.78,33.61,14.188 M40.034,9.315c0.412,0,2.986-1.947,4.618-4.328c1.632-2.392,1.451-4.448,1.134-4.473
	c-0.569-0.053-3.623,1.842-5.163,4.321C39.089,7.317,39.629,9.315,40.034,9.315 M40.228,9.629c-0.187,0.358,1.4,1.632,4.115,1.79
	c2.72,0.165,5.716-0.833,5.873-1.066c0.282-0.408-1.145-1.894-3.946-2.144C43.468,7.968,40.417,9.271,40.228,9.629 M54.693,4.057
	c3.252-1.065,2.654-3.224-0.708-2.118c-0.712,0.236-4.459,2.249-4.25,2.742C49.939,5.18,54.005,4.286,54.693,4.057 M50.208,2.267
	C49.682,0.933,46.835,2.09,47.417,3.4c0.125,0.28,1.526,1.587,2.18,1.316C50.25,4.455,50.314,2.553,50.208,2.267 M49.103,7.194
	c0.583,1.313,3.153,0.271,2.624-1.068c-0.112-0.283-1.467-1.633-2.119-1.372S48.978,6.914,49.103,7.194 M89.411,131.707
	c-0.53,0.342,1.707,3.836,7.455,4.455c4.226,0.455,10.388-0.178,12.813-2.707c0.321-0.34-2.613-2.962-8.022-3.243
	C97.674,130.003,92.1,129.993,89.411,131.707 M89.223,131.063c3.072,0,7.402-3.592,9.51-6.777c2.729-4.139,1.742-7.813,0.889-7.887
	c-0.482-0.045-4.691,2.918-7.688,6.841C88.939,127.164,88.6,131.061,89.223,131.063 M102.825,126.293
	c-0.388,0.382,2.352,3.3,7.592,2.961c3.679-0.234,9.356-1.783,10.967-4.527c0.228-0.381-3.005-2.362-7.94-1.767
	C109.807,123.404,104.82,124.346,102.825,126.293 M102.514,125.725c2.663-0.537,5.805-4.513,7.047-7.824
	c1.613-4.28-0.01-7.576-0.81-7.514c-0.449,0.036-3.703,3.5-5.542,7.633C101.372,122.154,101.979,125.829,102.514,125.725
	 M113.691,119.123c-0.217,0.643,2.813,2.725,7.582,1.581c3.598-0.867,8.213-3.285,9.291-5.981c0.149-0.373-3.211-1.729-7.738-0.423
	C118.3,115.607,113.908,118.482,113.691,119.123 M113.295,118.637c0.667-0.078,4.309-4.133,4.932-8.494
	c0.627-4.373-1.437-7.166-2.18-6.974c-0.415,0.106-2.82,3.907-3.693,8.101C111.486,115.473,112.62,118.727,113.295,118.637
	 M122.318,110.639c-0.086,0.645,3.146,2.133,7.412,0.305c3.222-1.389,7.156-4.424,7.699-7.125c0.082-0.381-3.359-1.141-7.402,0.813
	C125.973,106.585,122.398,109.998,122.318,110.639 M121.85,110.243c0.61-0.185,3.271-4.589,3.08-8.845
	c-0.183-4.25-2.615-6.594-3.285-6.287c-0.379,0.166-2.012,4.175-2.057,8.293C119.54,107.527,121.234,110.424,121.85,110.243
	 M128.637,101.67c0.029,0.616,3.244,1.52,7.029-0.814c3.783-2.328,6.344-6.984,6.182-7.83c-0.089-0.467-3.361-0.594-6.896,1.836
	C131.42,97.295,128.604,101.053,128.637,101.67 M128.129,101.367c0.553-0.266,2.327-4.813,1.504-8.818
	c-0.832-4.001-3.479-5.879-4.074-5.488c-0.332,0.215-1.285,4.27-0.674,8.179C125.499,99.154,127.586,101.632,128.129,101.367
	 M133.363,91.813c0.133,0.597,3.398,0.967,6.707-1.883c3.313-2.859,5.096-7.783,4.806-8.576c-0.155-0.44-3.38-0.063-6.446,2.854
	C135.359,87.126,133.23,91.217,133.363,91.813 M132.824,91.596c0.484-0.344,1.488-5.037,0.054-8.805
	c-1.437-3.768-4.301-5.186-4.819-4.717c-0.289,0.262-0.604,4.361,0.617,8.076C129.898,89.861,132.335,91.939,132.824,91.596
	 M136.404,81.484c0.211,0.553,3.402,0.416,6.162-2.824c2.756-3.225,3.759-8.212,3.365-8.931c-0.219-0.392-3.263,0.445-5.789,3.706
	C137.615,76.693,136.186,80.941,136.404,81.484 M135.848,81.368c0.42-0.4,0.672-5.056-1.255-8.458
	c-1.93-3.404-4.883-4.342-5.317-3.811c-0.242,0.291,0.045,4.303,1.776,7.678C132.77,80.159,135.436,81.768,135.848,81.368
	 M137.798,71.128c0.287,0.495,3.339-0.119,5.535-3.629c2.19-3.524,2.461-8.446,1.989-9.081c-0.266-0.354-3.088,0.894-5.065,4.406
	C138.277,66.33,137.514,70.641,137.798,71.128 M137.251,71.095c0.342-0.454-0.081-4.956-2.417-7.956
	c-2.332-3.003-5.309-3.482-5.659-2.911c-0.19,0.323,0.652,4.163,2.798,7.173C134.104,70.398,136.906,71.545,137.251,71.095
	 M137.668,60.839c0.336,0.432,3.182-0.608,4.796-4.289c1.619-3.693,1.204-8.455,0.663-8.992c-0.307-0.298-2.845,1.308-4.254,4.951
	C137.459,56.169,137.323,60.409,137.668,60.839 M137.135,60.889c0.266-0.479-0.768-4.743-3.426-7.29
	c-2.652-2.555-5.58-2.602-5.836-1.993c-0.139,0.335,1.2,3.923,3.675,6.503C134.021,60.686,136.871,61.373,137.135,60.889
	 M136.133,51.082c0.387,0.374,2.975-1.037,4.028-4.807c1.063-3.77,0.014-8.292-0.578-8.735c-0.332-0.246-2.562,1.643-3.424,5.355
	C135.296,46.616,135.744,50.716,136.133,51.082 M135.627,51.208c0.191-0.503-1.379-4.46-4.281-6.56
	c-2.91-2.094-5.732-1.746-5.892-1.126c-0.091,0.347,1.696,3.641,4.431,5.79C132.611,51.456,135.439,51.706,135.627,51.208
	 M133.326,41.891c0.422,0.307,2.713-1.393,3.209-5.148c0.499-3.75-1.102-7.945-1.738-8.288c-0.352-0.191-2.229,1.907-2.554,5.582
	C131.924,37.723,132.907,41.593,133.326,41.891 M132.859,42.081c0.117-0.506-1.92-4.086-4.989-5.724
	c-3.068-1.626-5.746-0.938-5.812-0.312c-0.035,0.338,2.137,3.287,5.051,4.994C130.016,42.731,132.749,42.59,132.859,42.081
	 M129.396,33.451c0.444,0.229,2.399-1.702,2.375-5.372c-0.033-3.663-2.145-7.475-2.801-7.731c-0.367-0.136-1.896,2.121-1.693,5.698
	C127.473,29.628,128.949,33.216,129.396,33.451 M128.975,33.691c0.039-0.503-2.406-3.673-5.591-4.855
	c-3.179-1.18-5.663-0.187-5.636,0.419c0.014,0.336,2.52,2.919,5.554,4.179C126.337,34.699,128.934,34.199,128.975,33.691
	 M124.702,26.17c0.448,0.17,2.065-1.904,1.565-5.396c-0.506-3.488-3.027-6.873-3.688-7.037c-0.368-0.095-1.537,2.226-0.882,5.616
	C122.357,22.743,124.24,25.996,124.702,26.17 M124.322,26.451c-0.021-0.485-2.775-3.217-5.977-3.987
	c-3.213-0.766-5.467,0.459-5.361,1.039c0.059,0.316,2.813,2.511,5.892,3.365C121.938,27.724,124.355,26.929,124.322,26.451
	 M118.973,19.481c0.45,0.121,1.69-2.023,0.748-5.227c-0.936-3.208-3.765-6.097-4.412-6.179c-0.354-0.042-1.158,2.263-0.078,5.367
	C116.296,16.551,118.518,19.381,118.973,19.481 M118.654,19.791c-0.088-0.45-3.047-2.695-6.189-3.056
	c-3.14-0.376-5.133,1.018-4.949,1.551c0.103,0.295,3.029,2.069,6.051,2.526C116.584,21.277,118.748,20.246,118.654,19.791
	 M112.652,13.875c0.439,0.052,1.322-2.069,0.022-4.945c-1.286-2.872-4.309-5.259-4.931-5.267c-0.344-0.011-0.813,2.218,0.604,4.985
	C109.754,11.419,112.218,13.825,112.652,13.875 M112.402,14.188c-0.146-0.408-3.215-2.172-6.23-2.195
	c-3.023-0.023-4.734,1.446-4.49,1.932c0.133,0.263,3.156,1.634,6.063,1.757C110.664,15.792,112.551,14.602,112.402,14.188
	 M105.977,9.315c0.407,0,0.945-1.998-0.588-4.48c-1.535-2.479-4.591-4.374-5.162-4.321c-0.317,0.025-0.502,2.081,1.141,4.473
	C102.991,7.368,105.564,9.315,105.977,9.315 M105.784,9.629c-0.185-0.358-3.236-1.661-6.041-1.42
	c-2.806,0.25-4.228,1.736-3.942,2.144c0.153,0.233,3.153,1.231,5.873,1.066C104.387,11.261,105.973,9.989,105.784,9.629
	 M91.318,4.057c0.69,0.229,4.752,1.123,4.959,0.624c0.209-0.493-3.543-2.506-4.252-2.743C88.667,0.836,88.066,2.992,91.318,4.057
	 M95.807,2.267c-0.105,0.286-0.039,2.188,0.605,2.449c0.658,0.272,2.054-1.036,2.182-1.313C99.18,2.092,96.336,0.933,95.807,2.267
	 M96.912,7.194c0.126-0.28,0.145-2.179-0.512-2.44c-0.648-0.261-2.004,1.089-2.118,1.375C93.762,7.465,96.318,8.507,96.912,7.194
	 M42.642,55.787h1.873l2.049-7.155c0.208-0.721,0.368-1.537,0.368-1.537h0.032c0,0,0.128,0.817,0.32,1.553l1.921,7.139h1.857
	l2.481-9.572c0.08-0.288,0.256-0.352,0.544-0.352h0.24v-1.377h-0.913c-0.8,0-1.184,0.16-1.376,0.929l-1.776,7.267
	c-0.144,0.609-0.208,1.201-0.208,1.201h-0.032c0,0-0.08-0.576-0.24-1.201l-2.113-8.163h-1.44l-2.273,8.163
	c-0.176,0.625-0.272,1.201-0.272,1.201h-0.032c0,0-0.08-0.593-0.224-1.201l-1.745-7.267c-0.193-0.769-0.593-0.929-1.393-0.929
	h-0.913v1.377h0.24c0.288,0,0.464,0.064,0.544,0.352L42.642,55.787z M56.32,45.863l0.001,8.899c0,0.72,0.304,1.024,1.024,1.024
	h5.026c0.72,0,1.024-0.304,1.024-1.024v-1.425h-1.473v0.721c0,0.224-0.128,0.352-0.352,0.352h-3.297
	c-0.224,0-0.352-0.128-0.352-0.352v-3.282h3.954V49.4h-3.954v-3.537h3.217c0.224,0,0.352,0.112,0.352,0.352v0.72h1.457V45.51
	c0-0.72-0.304-1.024-1.024-1.024H55.28v1.377H56.32L56.32,45.863z M65.473,54.762c0,0.72,0.304,1.024,1.024,1.024h2.865
	c2,0,3.633-1.088,3.633-3.217c0-1.264-0.656-2.384-1.857-2.737V49.8c0.753-0.368,1.409-1.201,1.409-2.433
	c0-1.824-1.376-2.881-3.281-2.881h-4.834v1.377h1.041V54.762z M67.072,49.24v-3.377h2.177c1.057,0,1.665,0.672,1.665,1.665
	c0,0.992-0.64,1.712-1.632,1.712L67.072,49.24z M67.073,54.058v-3.505h2.369c1.153,0,1.905,0.785,1.905,1.937
	s-0.704,1.921-1.905,1.921h-2.017C67.201,54.411,67.073,54.283,67.073,54.058z M74.336,54.298c0,0,1.344,1.681,3.745,1.681
	c2.241,0,3.585-1.488,3.585-3.217c0-3.713-5.441-3.201-5.441-5.49c0-0.849,0.767-1.521,1.984-1.521c0.896,0,1.745,0.432,1.745,1.024
	v0.528h1.473v-0.928c0-1.537-2.017-2.081-3.218-2.081c-2.129,0-3.617,1.328-3.617,3.025c0,3.522,5.458,3.153,5.458,5.522
	c0,1.041-0.88,1.681-1.937,1.681c-1.682,0-2.834-1.36-2.834-1.36L74.336,54.298z M83.072,55.787h3.729v-1.376h-1.104v-8.547h1.104
	v-1.377h-3.729v1.377h1.104v8.547h-1.104L83.072,55.787z M91.841,45.863l-0.001,9.924h1.601v-9.924h2.272
	c0.224,0,0.353,0.112,0.353,0.352v0.72h1.425v-1.489c0-0.72-0.24-0.96-0.96-0.96h-7.779c-0.721,0-0.961,0.24-0.961,0.96v1.489h1.425
	v-0.72c0-0.24,0.128-0.352,0.353-0.352H91.841L91.841,45.863z M99.459,45.863v8.899c0,0.72,0.303,1.024,1.025,1.024h5.024
	c0.719,0,1.025-0.304,1.025-1.024v-1.425h-1.474v0.721c0,0.224-0.129,0.352-0.354,0.352h-3.297c-0.225,0-0.352-0.128-0.352-0.352
	v-3.282h3.952V49.4h-3.952v-3.537h3.217c0.225,0,0.352,0.112,0.352,0.352v0.72h1.457V45.51c0-0.72-0.302-1.024-1.023-1.024h-6.643
	v1.377h1.039H99.459z M45.152,70.056c0,3.329,2.529,5.922,5.794,5.922c3.266,0,5.811-2.592,5.811-5.922
	c0-3.249-2.545-5.762-5.811-5.762C47.681,64.294,45.152,66.808,45.152,70.056z M46.817,70.058c0-2.417,1.84-4.273,4.129-4.273
	s4.146,1.856,4.146,4.273c0,2.497-1.857,4.417-4.146,4.417C48.658,74.475,46.817,72.554,46.817,70.058z M59.024,65.863l-0.001,9.923
	h1.601v-4.834h3.857v-1.376h-3.857v-3.713h2.801c0.225,0,0.353,0.112,0.353,0.352v0.72h1.457V65.51c0-0.72-0.304-1.024-1.024-1.024
	h-6.227v1.377H59.024L59.024,65.863z M74.018,65.863v9.924h1.602v-9.924h2.271c0.225,0,0.354,0.112,0.354,0.352v0.72h1.424v-1.489
	c0-0.72-0.24-0.96-0.961-0.96H70.93c-0.72,0-0.96,0.24-0.96,0.96v1.489h1.424v-0.72c0-0.24,0.128-0.352,0.352-0.352H74.018
	L74.018,65.863z M81.628,66.215v9.572h1.602v-4.962h5.746v4.962h1.602v-9.572c0-0.24,0.127-0.352,0.352-0.352h0.687v-1.377h-1.616
	c-0.719,0-1.025,0.304-1.025,1.024v3.954H83.23V65.51c0-0.72-0.302-1.024-1.022-1.024h-1.617v1.377h0.688
	c0.225,0,0.353,0.112,0.353,0.352H81.628z M93.956,65.863v8.899c0,0.718,0.302,1.024,1.024,1.024h5.025
	c0.718,0,1.023-0.303,1.023-1.024v-1.425h-1.473v0.722c0,0.225-0.128,0.352-0.352,0.352h-3.299c-0.223,0-0.353-0.127-0.353-0.352
	v-3.283h3.954V69.4h-3.954v-3.537h3.218c0.225,0,0.354,0.112,0.354,0.352v0.72h1.456V65.51c0-0.72-0.303-1.024-1.024-1.024h-6.643
	v1.377h1.04H93.956z M59.72,85.863l0.001,8.901c0,0.718,0.304,1.023,1.024,1.023h2.513c3.441,0,5.714-2.081,5.714-5.666
	c0-3.572-2.273-5.635-5.714-5.635H58.68v1.377H59.72L59.72,85.863z M61.321,94.058v-8.195h1.825c2.497,0,4.162,1.488,4.162,4.258
	c0,2.785-1.649,4.289-4.162,4.289h-1.473C61.449,94.41,61.321,94.283,61.321,94.058z M69.575,94.41l-0.002,1.377h0.88
	c0.801,0,1.057-0.192,1.329-0.928l0.849-2.322h4.162l0.849,2.322c0.256,0.737,0.512,0.928,1.313,0.928h0.896V94.41h-0.24
	c-0.271,0-0.431-0.065-0.528-0.352l-3.537-9.572h-1.681l-3.538,9.572c-0.096,0.289-0.24,0.352-0.528,0.352H69.575L69.575,94.41z
	 M73.019,91.193l1.233-3.441c0.207-0.592,0.433-1.585,0.433-1.585h0.03c0,0,0.24,0.993,0.449,1.585l1.231,3.441H73.019z
	 M82.873,90.857l-0.003,4.93h1.601v-4.93l2.85-4.594c0.209-0.337,0.369-0.4,0.705-0.4h0.304v-1.377h-0.735
	c-0.752,0-1.074,0.111-1.521,0.865L84.377,88.2c-0.383,0.624-0.688,1.265-0.688,1.265h-0.032c0,0-0.319-0.641-0.688-1.265
	l-1.713-2.849c-0.448-0.754-0.752-0.865-1.52-0.865H79v1.377h0.32c0.336,0,0.48,0.063,0.688,0.4L82.873,90.857L82.873,90.857z"/>
</svg>
