<?xml version="1.0" encoding="utf-8"?>
<!-- Generator: Adobe Illustrator 17.0.0, SVG Export Plug-In . SVG Version: 6.00 Build 0)  -->
<!DOCTYPE svg PUBLIC "-//W3C//DTD SVG 1.1//EN" "http://www.w3.org/Graphics/SVG/1.1/DTD/svg11.dtd">
<svg version="1.1" id="Layer_1" xmlns="http://www.w3.org/2000/svg" xmlns:xlink="http://www.w3.org/1999/xlink" x="0px" y="0px"
	 width="141.858px" height="141.858px" viewBox="0 0 141.858 141.858" enable-background="new 0 0 141.858 141.858"
	 xml:space="preserve">
<g>
	<rect x="0" y="75.677" width="28.342" height="28.342"/>
	<rect x="37.839" y="75.677" width="28.342" height="28.342"/>
	<rect x="37.839" y="113.516" width="28.342" height="28.342"/>
	<rect x="0" y="113.516" width="28.342" height="28.342"/>
</g>
<g>
	<rect x="75.677" y="75.677" width="28.342" height="28.342"/>
	<rect x="113.516" y="75.677" width="28.342" height="28.342"/>
	<rect x="113.516" y="113.516" width="28.342" height="28.342"/>
	<rect x="75.677" y="113.516" width="28.342" height="28.342"/>
</g>
<g>
	<rect x="0" y="0" width="28.342" height="28.342"/>
	<rect x="37.839" y="0" width="28.342" height="28.342"/>
	<rect x="37.839" y="37.839" width="28.342" height="28.342"/>
	<rect x="0" y="37.839" width="28.342" height="28.342"/>
</g>
<g>
	<rect x="75.677" y="0" width="28.342" height="28.342"/>
	<rect x="113.516" y="0" width="28.342" height="28.342"/>
	<rect x="113.516" y="37.839" width="28.342" height="28.342"/>
	<rect x="75.677" y="37.839" width="28.342" height="28.342"/>
</g>
</svg>
