<?xml version="1.0" encoding="utf-8"?>
<!-- Generator: Adobe Illustrator 17.0.0, SVG Export Plug-In . SVG Version: 6.00 Build 0)  -->
<!DOCTYPE svg PUBLIC "-//W3C//DTD SVG 1.1//EN" "http://www.w3.org/Graphics/SVG/1.1/DTD/svg11.dtd">
<svg version="1.1" id="Layer_1" xmlns="http://www.w3.org/2000/svg" xmlns:xlink="http://www.w3.org/1999/xlink" x="0px" y="0px"
	 width="148.199px" height="128.344px" viewBox="0 0 148.199 128.344" enable-background="new 0 0 148.199 128.344"
	 xml:space="preserve">
<polygon points="128.662,12.844 75.361,105.165 22.059,12.844 "/>
<g>
	<path fill="#FFFFFF" d="M2.598,1.5H145.6L74.099,125.344L2.598,1.5z M74.099,90.969l41.571-72.003H32.529L74.099,90.969z"/>
	<path d="M143.003,3L74.1,122.344L5.196,3H143.003 M74.1,93.969l44.169-76.503H29.931L74.1,93.969 M148.199,0h-5.196H5.196H0
		l2.598,4.5l68.903,119.344l2.598,4.5l2.598-4.5L145.601,4.5L148.199,0L148.199,0z M35.127,20.466h77.945L74.1,87.969L35.127,20.466
		L35.127,20.466z"/>
</g>
</svg>
