<?xml version="1.0" encoding="utf-8"?>
<!-- Generator: Adobe Illustrator 17.0.0, SVG Export Plug-In . SVG Version: 6.00 Build 0)  -->
<!DOCTYPE svg PUBLIC "-//W3C//DTD SVG 1.1//EN" "http://www.w3.org/Graphics/SVG/1.1/DTD/svg11.dtd">
<svg version="1.1" id="Layer_1" xmlns="http://www.w3.org/2000/svg" xmlns:xlink="http://www.w3.org/1999/xlink" x="0px" y="0px"
	 width="128.344px" height="148.199px" viewBox="0 0 128.344 148.199" enable-background="new 0 0 128.344 148.199"
	 xml:space="preserve">
<polygon points="12.844,19.537 105.165,72.839 12.844,126.14 "/>
<g>
	<path fill="#FFFFFF" d="M1.5,145.601V2.599L125.344,74.1L1.5,145.601z M90.969,74.1L18.966,32.529v83.142L90.969,74.1z"/>
	<path d="M3,5.196L122.344,74.1L3,143.003V5.196 M93.969,74.1L17.466,29.931v88.338L93.969,74.1 M0,0l0,5.196l0,137.807l0,5.196
		l4.5-2.598l119.344-68.903l4.5-2.598l-4.5-2.598L4.5,2.598L0,0L0,0z M20.466,113.072V35.127L87.969,74.1L20.466,113.072
		L20.466,113.072z"/>
</g>
</svg>
