<?xml version="1.0" encoding="utf-8"?>
<!-- Generator: Adobe Illustrator 17.0.0, SVG Export Plug-In . SVG Version: 6.00 Build 0)  -->
<!DOCTYPE svg PUBLIC "-//W3C//DTD SVG 1.1//EN" "http://www.w3.org/Graphics/SVG/1.1/DTD/svg11.dtd">
<svg version="1.1" id="Layer_1" xmlns="http://www.w3.org/2000/svg" xmlns:xlink="http://www.w3.org/1999/xlink" x="0px" y="0px"
	 width="128.344px" height="148.199px" viewBox="0 0 128.344 148.199" enable-background="new 0 0 128.344 148.199"
	 xml:space="preserve">
<polygon points="115.5,126.14 23.179,72.839 115.5,19.537 "/>
<g>
	<path fill="#FFFFFF" d="M3,74.1L126.844,2.599v143.002L3,74.1z M109.378,115.671l0-83.142L37.375,74.1L109.378,115.671z"/>
	<path d="M125.344,5.196v137.807L6,74.1L125.344,5.196 M34.375,74.1l76.503,44.169l0-88.338L34.375,74.1 M128.344,0l-4.5,2.598
		L4.5,71.502L0,74.1l4.5,2.598l119.344,68.903l4.5,2.598v-5.196V5.196V0L128.344,0z M107.878,113.072L40.375,74.1l67.503-38.973
		L107.878,113.072L107.878,113.072z"/>
</g>
</svg>
