<?xml version="1.0" encoding="utf-8"?>
<!-- Generator: Adobe Illustrator 17.0.0, SVG Export Plug-In . SVG Version: 6.00 Build 0)  -->
<!DOCTYPE svg PUBLIC "-//W3C//DTD SVG 1.1//EN" "http://www.w3.org/Graphics/SVG/1.1/DTD/svg11.dtd">
<svg version="1.1" id="Layer_1" xmlns="http://www.w3.org/2000/svg" xmlns:xlink="http://www.w3.org/1999/xlink" x="0px" y="0px"
	 width="148.199px" height="128.344px" viewBox="0 0 148.199 128.344" enable-background="new 0 0 148.199 128.344"
	 xml:space="preserve">
<polygon points="19.537,115.5 72.839,23.179 126.14,115.5 "/>
<g>
	<path fill="#FFFFFF" d="M145.601,126.844H2.599L74.1,3L145.601,126.844z M74.1,37.375l-41.571,72.003h83.142L74.1,37.375z"/>
	<path d="M5.196,125.344L74.1,6l68.903,119.344H5.196 M74.1,34.376l-44.169,76.503h88.338L74.1,34.376 M0,128.344h5.196h137.807
		h5.196l-2.598-4.5L76.698,4.5L74.1,0l-2.598,4.5L2.598,123.844L0,128.344L0,128.344z M113.072,107.878H35.127L74.1,40.376
		L113.072,107.878L113.072,107.878z"/>
</g>
</svg>
