<?xml version="1.0" encoding="utf-8"?>
<!-- Generator: Adobe Illustrator 17.0.0, SVG Export Plug-In . SVG Version: 6.00 Build 0)  -->
<!DOCTYPE svg PUBLIC "-//W3C//DTD SVG 1.1//EN" "http://www.w3.org/Graphics/SVG/1.1/DTD/svg11.dtd">
<svg version="1.1" id="Layer_1" xmlns="http://www.w3.org/2000/svg" xmlns:xlink="http://www.w3.org/1999/xlink" x="0px" y="0px"
	 width="141.835px" height="79.936px" viewBox="0 0 141.835 79.936" enable-background="new 0 0 141.835 79.936"
	 xml:space="preserve">
<polygon points="25.628,56.304 24.331,57.36 24.557,60.815 25.628,61.299 26.398,61.571 26.534,61.525 26.7,61.495 26.986,61.45 
	27.287,61.389 27.423,61.342 27.575,61.299 27.725,61.254 27.876,61.177 28.029,61.087 28.163,60.981 28.315,60.833 28.465,60.665 
	28.617,60.469 28.692,60.364 28.767,60.242 28.254,58.175 27.966,55.807 "/>
<polygon points="32.582,58.279 33.08,58.549 35.719,57.509 35.146,54.838 33.592,53.538 32.777,53.042 30.453,55.41 30.952,56.209 
	30.952,57.207 "/>
<path d="M29.748,54.039l0.498-0.181l0.483-0.196h0.242l1.569-1.299l1.871-0.8l4.739-3.138l4.693-6.037l1.574-2.366l-2.568-2.63
	l-0.468-0.363c-2.284-1.768-4.843-3.186-7.454-4.407l-0.469-0.181l-0.469-0.181c-2.82-0.998-5.801-1.57-8.797-1.57h-0.468
	c-3.674,0-7.359,1.068-10.684,2.566c-0.016,0.007-0.937,0.422-0.937,0.422l-4.694,2.942L5.783,38.45l-3.898,4.087L0,44.333
	l4.169,5.664l5.236,3.938l5.585,1.873l0.799,0.226l0.921-0.137c0.92-0.105,1.84-0.194,2.762-0.271c3.203,0,6.741-0.469,9.793-1.435
	L29.748,54.039z"/>
<polygon points="16.098,28.05 16.159,28.408 16.249,28.77 16.341,29.116 16.465,29.451 16.588,29.803 16.728,30.125 16.883,30.449 
	17.423,30.518 20.429,29.626 19.685,25.255 17.427,24.462 17.413,24.461 17.394,24.489 17.345,24.513 17.279,24.564 17.228,24.604 
	17.162,24.641 17.093,24.694 17.011,24.743 16.911,24.822 16.795,24.884 16.684,25.052 16.585,25.221 16.485,25.392 16.406,25.549 
	16.338,25.722 16.269,25.895 16.217,26.07 16.163,26.247 16.101,26.605 16.057,26.964 16.041,27.312 16.055,27.68 "/>
<polygon points="34.938,30.873 35.332,30.934 35.708,31.024 36.072,31.145 36.417,31.281 36.735,31.431 36.886,31.523 
	37.037,31.613 37.535,31.613 39.905,26.875 38.349,26.618 38.048,26.753 37.746,26.919 37.445,27.087 37.142,27.265 36.826,27.448 
	36.524,27.658 36.237,27.884 35.935,28.11 35.664,28.367 35.392,28.654 35.136,28.942 34.895,29.274 34.667,29.622 34.577,29.803 
	34.472,29.999 34.382,30.179 34.29,30.39 34.215,30.603 34.139,30.813 34.531,30.829 "/>
<polygon points="30.971,25.046 30.473,25.046 28.103,29.515 29.175,29.755 29.673,30.059 "/>
<polygon points="24.449,29.136 25.904,28.001 26.17,25.952 25.511,24.802 23.837,25.392 22.557,27.068 22.325,28.863 22.893,28.937 
	"/>
<path d="M123.717,35.056c0,0-1.745-1.628-4.134-3.841c-3.892-3.604-9.497-8.759-12.062-10.955c-2.817-2.301-5.859-4.814-9.658-6.904
	c0.434-0.88,0.758-1.846,0.989-2.368c0.7-1.575,1.419-3.672,1.156-5.427c-0.53-0.2-1.139-0.388-1.337-0.484
	c-0.139,0.096-3.137,3.136-3.484,3.461c-0.679,0.635-1.342,1.3-2.012,1.955c0.255-1.674,0.502-3.321,0.539-4.668
	c-0.432-0.413,1.107-0.696-1.19-1.747c-0.133,0.051-0.899,0.439-1.033,0.656c-0.442,0.427-0.868,0.875-1.142,1.268
	c-0.509,0.667-0.836,1.2-0.822,1.196c-0.001-0.008-0.557,0.945-1.535,2.486c-0.129-0.027-0.251-0.06-0.382-0.087
	c-0.002,0-0.003,0-0.004-0.001c-0.017-0.416-0.03-0.836-0.016-1.276c0.024-1.043-0.023-1.997-0.069-3.121l-0.145-1.616
	c-0.042-0.306-0.037-0.492-0.156-0.933l-0.058-0.195L87.149,2.41c-2.454-0.697-0.702-0.174-1.26-0.321l-0.076,0.067
	c-0.072,0.059-0.249,0.218-0.335,0.31c-1.661,1.872-2.408,3.952-3.462,5.848c-0.072,0.14-0.142,0.281-0.213,0.422
	c-0.04-3.807-0.011-6.581-0.897-8.701c-0.212-0.009-0.16-0.019-0.07-0.026c-0.199,0.009-0.596,0.025-1.358,0.052l-0.091,0.253
	l-0.174,0.497L78.882,1.77l-0.602,1.794c-0.378,1.149-0.71,2.216-1.017,3.258c-0.177,0.596-0.344,1.187-0.51,1.779
	c-13.381-0.257-34.229,1.839-52.307,9.408l-1.146,0.392l-0.572,0.196c0.04,0.22,0.462,3.638,0.473,3.68l0.037,0.004l0.074,0.007
	l0.147,0.016l0.294,0.03l2.347,0.24c1.566,0.127,3.085,0.381,4.591,0.61c3.008,0.467,5.874,1.153,8.485,2.06
	c5.303,1.768,9.006,5.068,10.137,8.959c2.163,8.233,0.305,13.921,0.32,13.658c-0.043-0.177-1.086,5.643-8.808,9.881
	c-3.761,2.062-8.737,3.686-14.345,4.732c-1.822,0.34-3.66,0.601-5.494,0.869l-0.034,0.006c-0.189,1.632-0.432,3.661-0.432,3.661
	c1.214,0.292,2.418,0.492,3.654,0.674c3.019,0.442,6.357,0.895,9.565,1.18c12.361,0.902,25.433,1.54,36.691,1.154
	c0.233,1.3,0.457,2.546,0.735,3.816c0.186,1.078,0.531,2.329,0.862,3.52c0.14,0.53,0.41,1.428,0.708,1.963
	c0.635,0.219-1.123,0.187,1.481,0.617c0.115-0.145,0.272-0.369,0.371-0.569c0.178-0.352,0.339-0.666,0.504-1.159
	c0.535-1.466,1.033-4.497,1.597-8.075c0.234,0.664,0.46,1.337,0.707,2.068c0.418,1.124,0.735,2.093,1.358,3.366
	c0.263,0.427,0.704,1.117,1.249,1.553c0.475-0.018,0.122,0.962,1.846,0.109c0.167-0.273,0.298-0.474,0.487-0.864
	c0.875-2.155,1.327-4.383,1.802-6.31c0.141,0.381,0.278,0.746,0.386,1.027c0.497,1.551,1.104,2.888,1.633,3.74
	c-0.075-0.044,0.312,0.383,0.368,0.405c0.55-0.091-1.06,0.337,1.258-0.181l0.062-0.125c0.083-0.178,0.08-0.17,0.183-0.331
	c0.13-0.192,0.254-0.452,0.224-0.393c0.148-0.092,0.794-2.075,1.641-5.22c0.038-0.134,0.125-0.375,0.21-0.614
	c0.257,0.47,0.512,0.982,0.788,1.604c0.9,1.791,1.397,4.054,3.271,6.052c2.493-1.093,0.69-0.31,1.248-0.558v-0.013l0.001-0.027
	l0.002-0.054l0.005-0.108l0.007-0.216l0.017-0.433l0.033-0.868l0.066-1.742l0.131-3.465l0.124-3.264
	c0.615-0.359,1.182-0.738,1.679-1.146c7.286-5.185,11.932-10.364,16.24-15.199c2.084-2.492,4.081-4.835,6.144-7.391
	c1.001-1.279,2.039-2.528,3.106-3.857c0.358-0.792,1.465-1.035,1.228-2.308L123.717,35.056z"/>
<path d="M135.016,32.66l4.182-6.626l-6.644,4.701l-3.473-3.663l0.537,5.336l-4.704,2.904c-0.076,0.041,5.209,0.221,5.209,0.221
	l0.158,8.872l3.315-8.461l8.24,0.884L135.016,32.66z"/>
<polygon fill="#B0B0B0" points="69.848,66.902 70.072,67.667 70.298,68.479 70.522,69.33 70.791,70.232 71.24,72.029 71.734,73.827 
	71.959,74.681 72.185,75.536 72.455,76.346 72.679,77.108 72.903,77.829 73.129,78.456 73.396,78.998 73.622,79.491 73.758,79.312 
	73.891,79.088 74.116,78.638 74.341,78.098 74.52,77.469 74.701,76.794 74.88,76.031 75.06,75.222 75.241,74.413 75.51,72.658 
	75.778,70.815 76.092,69.063 76.274,68.208 76.453,67.399 76.722,68.028 76.992,68.747 77.532,70.232 78.025,71.713 78.563,73.197 
	78.835,73.873 79.105,74.546 79.372,75.13 79.689,75.627 80.049,76.12 80.41,76.478 80.587,76.615 80.767,76.748 80.991,76.841 
	81.172,76.886 81.396,76.525 81.62,76.12 81.803,75.672 81.982,75.176 82.157,74.636 82.337,74.055 82.701,72.793 83.015,71.489 
	83.327,70.14 83.687,68.837 83.825,68.208 84.004,67.623 84.184,68.073 84.408,68.566 84.766,69.599 85.17,70.635 85.528,71.713 
	85.936,72.701 86.113,73.153 86.294,73.556 86.516,73.917 86.697,74.277 86.88,74.546 87.103,74.727 87.282,74.365 87.508,74.006 
	87.732,73.556 87.909,73.063 88.091,72.525 88.27,71.985 88.585,70.861 88.899,69.735 89.214,68.613 89.394,68.116 89.573,67.576 
	89.755,67.13 89.931,66.678 90.204,67.04 90.473,67.487 90.789,68.028 91.103,68.613 91.371,69.242 91.687,69.869 92.268,71.263 
	92.854,72.568 93.17,73.197 93.437,73.78 93.754,74.322 94.021,74.77 94.339,75.176 94.653,75.444 94.877,69.511 95.101,63.578 
	94.068,63.982 92.946,64.295 91.73,64.611 90.429,64.882 89.078,65.105 87.642,65.375 86.159,65.556 84.587,65.779 82.922,65.914 
	81.26,66.095 79.465,66.273 77.666,66.411 75.778,66.543 73.846,66.678 71.87,66.768 69.848,66.902 "/>
<path fill="#AEAEAE" d="M53.695,44.516c-0.881-0.53-4.304-2.56-6.171-3.668c1.101,0.22,2.73,0.603,2.732,0.596
	c-0.016,0.025,2.913,0.898,3.322,1.348c0.473,0.265,0.833,0.263,1.45,0.242c-0.211-0.5-0.416-0.829-0.934-1.139
	c-0.503-0.526-3.576-1.423-3.567-1.45c0,0.004-0.58-0.134-1.286-0.293c0.247-0.016,0.408-0.026,0.408-0.026s2.503-0.025,3.002-0.041
	c0.461-0.014,0.721-0.195,1.105-0.532c-0.389-0.325-0.654-0.5-1.118-0.502c-0.502-0.002-3.019,0.041-3.019,0.041
	s-0.333,0.02-0.78,0.045c0.637-0.231,1.171-0.424,1.171-0.424s2.677-0.955,3.207-1.156c0.486-0.164,0.72-0.501,0.999-0.866
	c-0.502-0.257-0.858-0.256-1.349-0.107c-0.537,0.184-3.208,1.156-3.208,1.156s-0.335,0.12-0.789,0.282
	c0.486-0.305,0.862-0.541,0.861-0.541c-0.007-0.01,2.443-1.669,2.806-2.197c0.398-0.387,0.502-0.734,0.578-1.26
	c-0.573,0.088-0.909,0.159-1.288,0.507c-0.32,0.461-2.673,2.074-2.663,2.085c-0.001,0-1.173,0.728-2.061,1.28
	c1.139-1.289,2.258-2.556,2.664-3.023c0.841-0.996,1.297-1.679,1.653-2.724c-0.851,0.607-1.575,1.053-2.428,2.04
	c-0.477,0.533-1.902,2.146-3.208,3.627c-0.328,1.026-2.004,0.806-1.007,2.609c0.598,0.355,0.984,0.582,0.984,0.582
	s6.167,3.674,7.403,4.398c1.11,0.674,1.948,0.888,2.927,1.19C55.453,45.725,54.797,45.202,53.695,44.516z"/>
<path fill="#AEAEAE" d="M15.073,52.003c-0.516-0.267-1.216-0.24-1.761-0.429c-1.347-0.465-2.575-1.368-3.71-2.213
	c-1.802-1.344-3.238-2.893-4.667-4.608l-0.26-0.337l-0.244-0.352v-1.871l0.448-0.52c0.513-0.596,1.227-1.256,1.85-1.846
	c1.056-0.961,2.159-1.843,3.337-2.65c0.643-0.441,2.964-1.69,2.964-1.69s1.392-0.623,1.861-0.799
	c1.504-0.563,3.083-1.01,4.674-1.245c1.329-0.197,2.677-0.314,4.022-0.287c1.324,0.015,2.647,0.135,3.953,0.345
	c1.773,0.285,3.503,0.753,5.206,1.315c0.843,0.278,1.957,0.542,2.692,1.062l3.637,2.588l1.5,2.857l-0.051,0.269
	c0,0-0.071,0.239-0.078,0.265c-0.433,1.457-1.352,2.83-2.424,3.901c-0.742,0.754-1.545,1.437-2.371,2.095
	c-1.002,0.798-2.166,1.455-3.307,2.038c-1.102,0.563-2.238,1.043-3.402,1.462c-1.149,0.413-2.467,0.62-3.689,0.885
	c-3.013,0.654-5.825,0.244-8.844,0.244l-0.584-0.075C15.827,52.405,15.202,52.071,15.073,52.003z"/>
<polygon fill="#FFFFFF" points="9.206,46.536 8.55,45.481 8.552,45.471 8.544,45.46 8.542,45.429 8.528,45.394 8.516,45.36 
	8.513,45.328 8.5,45.285 8.48,45.239 8.463,45.173 8.445,45.117 8.514,44.803 8.581,44.496 8.628,44.197 8.65,43.903 8.653,43.747 
	8.647,43.59 8.64,43.436 8.623,43.276 8.597,43.114 8.561,42.951 8.517,42.777 8.454,42.597 8.486,41.695 9.507,40.299 
	8.621,40.287 6.294,41.74 5.253,43.327 5.359,43.547 5.457,43.766 5.578,43.967 5.686,44.178 5.81,44.37 5.932,44.562 6.056,44.744 
	6.192,44.931 6.318,45.113 6.456,45.279 6.736,45.61 7.015,45.928 7.303,46.22 7.589,46.512 7.891,46.783 8.175,47.043 8.47,47.295 
	8.758,47.534 9.038,47.769 9.308,48.007 9.565,48.238 10.033,48.507 10.231,48.55 "/>
<path fill="#4D4D4D" d="M48.651,18.975c0,0.625-0.578,1.131-1.291,1.131c-0.713,0-1.293-0.507-1.293-1.131
	c0-0.625,0.58-1.131,1.293-1.131C48.073,17.844,48.651,18.35,48.651,18.975z M123.884,35.724c0,0-22.263-18.532-36.783-22.4
	c-8.226-1.818-33.26-1.737-55.824,6.128c0.009,0.002,0.017,0.003,0.026,0.004c3.158,0.492,6.236,1.221,9.144,2.234
	c5.813,1.824,11.032,6.246,12.441,11.321c2.591,9.617,0.337,15.92,0.333,15.969c0.071-0.278-1.691,7.306-10.564,12.053
	c-2.902,1.594-6.331,2.893-10.082,3.912c0.498,0.052,0.993,0.105,1.501,0.151c25.163,2.06,54.981,2.091,61.256-4.063
	c6.894-4.865,11.669-9.66,16.369-13.995c2.284-2.243,4.643-4.405,6.984-6.583c1.168-1.121,2.415-2.23,3.663-3.364
	C122.763,36.733,123.684,35.862,123.884,35.724z"/>
<path fill="#4D4D4D" d="M13.578,48.304c-1.037-0.616-1.925-1.46-2.496-2.529L10.9,45.422l-0.042-2.88c0,0-0.175-0.213-0.197-0.241
	c0,0,0.022-0.262,0.022-0.263c0.137-0.778,0.48-1.455,0.893-2.114l0.38-0.507c0.631-0.754,1.358-1.397,2.168-1.949
	c0.656-0.446,1.42-0.807,2.197-0.978l1.022-0.096l1.76,0.23l3.774,2.885l0.495,1.148l0.375,2.257l-0.052,0.395l-0.064,0.398
	c-0.285,1.767-1.23,3.382-2.444,4.662c-0.378,0.398-0.924,0.478-1.489,0.602c-1.174,0.258-2.435,0.304-3.632,0.174
	C16.067,49.145,13.579,48.304,13.578,48.304z"/>
<path fill="#FFFFFF" d="M35.86,39.69c-2.389-1.616-4.719-3.04-7.393-4.131l-3.146-0.73l2.375,3.801l0.496,6.818l-0.131,0.598
	c-0.233,0.806-0.548,1.583-0.917,2.351c-0.017,0.032-0.757,1.694-0.757,1.694l1.148-0.184l0.933-0.452
	c1.273-0.616,2.502-1.313,3.685-2.088c1.285-0.842,2.363-1.896,3.345-3.073c0.492-0.589,1.595-2.791,1.595-2.791l0.284-0.787
	C37.376,40.716,35.867,39.695,35.86,39.69z"/>
<path d="M14.726,45.996l-1.942-1.766l0.03-0.222c0,0-0.157-0.437-0.167-0.463l0.532-2.355l1.513-1.555l1.392-0.715l3.722,1.82
	c0,0,0.473,1.6,0.473,1.601c-0.032,1.623-1.041,2.938-2.452,3.641l-2.696,0.281L14.726,45.996z"/>
<polygon fill="#FFFFFF" points="14.814,44.347 14.65,43.86 14.474,42.111 15.708,40.957 17.795,41.872 17.743,42.282 16.55,44.573 
	15.236,44.592 14.814,44.347 "/>
<path fill="#AEAEAE" d="M72.058,55.431c0.902-1.353,0.935-3.328,3.03-4.173c-0.785-2.543-1.18-5.03-1.233-7.294
	c-0.055-2.293,1.532-4.301,1.742-6.716c0.173-2.006-1.017-3.097-0.475-5.423c0.371-1.598,1.37-1.079,1.016-2.91
	c-0.418-2.159-3.872-4.133-4.942-6.302L72.058,55.431z"/>
<path fill="#AEAEAE" d="M89.857,50.933c0.68-1.107,0.714-2.716,2.285-3.417c-0.579-2.069-0.869-4.096-0.905-5.944
	c-0.034-1.87,1.163-3.514,1.327-5.483c0.135-1.639-0.755-2.524-0.341-4.424c0.282-1.306,1.034-0.886,0.774-2.379
	c-0.309-1.76-2.895-3.36-3.693-5.127L89.857,50.933z"/>
<path fill="#AEAEAE" d="M81.347,53.792c-0.197-0.019,1.062-3.155,0.945-3.2c2.332-3.172,1.809-6.511,1.881-10.036
	c0.037-1.881-0.055-4.555,0.399-6.334c0.386-1.492,2.588-3.22,2.558-4.768c-0.03-1.465-5.492-5.446-6.443-6.426L81.347,53.792z"/>
<path fill="#AEAEAE" d="M98.554,47.083c-0.486-2.33,1.218-8.374,3.772-10.629c-1.63-2.573-3.347-4.745-4.608-7.762L98.554,47.083z"
	/>
<path fill="#AEAEAE" d="M103.636,45.991c1.024-2.806-1.206-9.018,2.616-9.971c-0.655-1.485-1.619-3.378-2.3-4.766L103.636,45.991z"
	/>
<polygon fill="#AEAEAE" points="137.335,28.023 134.037,32.913 139.12,35.944 133.185,35.218 130.912,41.343 130.652,34.919 
	126.523,34.807 130.375,32.755 129.933,28.998 132.388,31.531 "/>
<path d="M80.836,0.009C81.147-0.005,80.959-0.001,80.836,0.009L80.836,0.009z"/>
<path d="M80.313,11.765L80.313,11.765C79.882,11.656,80.756,11.885,80.313,11.765z"/>
<path fill="#AEAEAE" d="M81.016,12.364c-1.452,0.106-2.886,0.381-4.313,0.674c-0.203,0.042-1.013,0.169-1.106,0.178
	c0.021-0.059,0.39-0.928,0.512-1.186c0.799-1.693,1.5-3.221,2.19-4.833c0.429-1.001,0.851-2.034,1.292-3.162l0.456-1.195
	c0.166,1.562,0.302,3.863,0.244,6.235l0.011,1.481l0.007,0.761l0.004,0.385c0,0,0,0.048,0,0.061
	c0.181,0.045,0.586,0.149,1.424,0.364l0.049-0.083l0.098-0.167c0.017-0.03,0.033-0.06,0.05-0.091
	c0.034,0.008,0.027,0.006,0.002-0.002c0.533-0.939,0.947-1.851,1.432-2.788c0.859-1.579,1.609-3.344,2.576-4.698
	c0.097,0.411,0.177,0.819,0.072,1.016c0.04,0.977,0.094,2.071,0.066,2.999c-0.03,0.994,0.068,1.991,0.068,2.844
	c0.008,0.289,0.003,0.686,0.018,1.036c-0.205-0.055-0.165-0.044,0.001,0.003c0.002,0.04,0.005,0.076,0.007,0.115
	C84.401,12.233,82.653,12.244,81.016,12.364z"/>
<path fill="#AEAEAE" d="M88.02,12.423l0.103-0.157c1.694-2.578,2.693-4.301,2.703-4.304c-0.003-0.015,0.185-0.329,0.738-1.067
	c0.136-0.189,0.301-0.384,0.499-0.596c-0.111,0.875-0.155,2.465-0.199,2.766c-0.163,1.128-0.304,2.269-0.506,3.391
	c0.377,0.171,0.754,0.342,1.132,0.512C91.029,12.721,89.524,12.542,88.02,12.423z"/>
<path fill="#AEAEAE" d="M98.166,8.366c-0.656,1.846-1.611,3.519-2.359,5.294c-0.991-0.248-2.023-0.464-3.082-0.649
	c1.88-1.821,3.715-3.719,5.625-5.517C98.323,7.764,98.275,8.059,98.166,8.366z"/>
<path d="M76.822,28.591c-0.536-1.655-1.493-2.379-1.851-2.817c-1.477-1.521-2.507-1.929-3.774-3.16
	c0.443,1.752,1.341,2.784,2.689,4.2c0.342,0.376,1.181,1.185,1.466,2.139c0.081,0.702,0.283,0.757-0.294,1.323
	c-0.717,0.809-0.733,1.803-0.785,2.637c0.69,3.509,0.509,5.371,0.299,5.552c0.307,0.052-1.35,2.291-1.444,5.831
	c0.08,2.292,0.84,6.113,1.164,6.592c-2.129,1.358-1.775,3.039-2.234,4.544c1.323-1.263,1.631-2.603,3.068-3.3
	c1.313-2.524-0.716-4.591-0.485-7.889c-0.019-2.628,1.645-5.311,1.383-5.385c0.294,0.201,0.38-3.423-0.239-5.92
	c0.046-0.666,0.062-1.343,0.44-1.696C76.913,30.787,77.151,29.157,76.822,28.591z"/>
<path d="M93.744,29.174c-0.447-1.34-1.073-2.122-1.4-2.418c-1.164-1.32-1.901-1.634-3.04-2.598c0.271,1.414,0.885,2.402,1.885,3.56
	c0.355,0.315,0.766,0.974,1.062,1.706c0.464,0.438-1.121,1.59-0.867,3.267c0.594,2.833,0.33,4.26,0.213,4.424
	c0.218,0.036-1.027,1.846-1.093,4.744c0.097,1.796,0.533,4.977,0.879,5.286c-1.662,1.227-1.272,2.549-1.526,3.787
	c1.108-1.015,1.421-2.08,2.445-2.609c1.075-2.373-0.486-3.793-0.286-6.511c-0.032-2.056,1.216-4.271,1.034-4.316
	c0.189,0.183,0.388-2.815-0.153-4.818c0.024-0.542,0.078-1.025,0.276-1.363C93.547,31.126,93.987,29.687,93.744,29.174z"/>
<path d="M86.894,27.574c-0.924-1.026-1.739-1.71-2.14-2.076c-1.504-1.296-2.547-1.738-4.067-2.471
	c0.892,1.461,1.639,2.332,3.077,3.603c0.574,0.908,4.108,2.489,1.655,4.748c-2.202,2.407-1.848,5.71-1.926,5.521
	c-0.264,0.024,0.479,10.812-1.156,12.206c-1.008,1.399-1.056,3.222-0.989,4.687c1.063-1.56,1.042-2.193,2.318-3.983
	c1.952-2.181,1.025-12.982,1.328-12.832c0.125-0.038-0.3-2.622,1.649-4.711C87.685,31.457,88.357,28.451,86.894,27.574z"/>
<path d="M101.846,34.344c-0.974-1.431-1.933-3.002-2.233-3.533c-0.563-0.977-1.016-1.441-1.895-2.12
	c-0.009,1.048,0.013,1.817,0.584,2.856c0.308,0.569,1.311,2.212,2.284,3.635c0.208,0.156,0.535,0.866,0.767,1.223
	c-0.298,0.329-0.478,0.532-0.478,0.532c-0.361-0.133-3.097,5.838-2.953,7.254c-0.194,1.186,0.046,2.002,0.632,2.891
	c0.372-1.033,0.658-1.545,0.851-2.64c-0.106-1.298,2.396-6.803,2.66-6.586c0-0.001,0.239-0.255,0.599-0.657
	C103.226,34.849,102.123,35.483,101.846,34.344z"/>
<path d="M105.601,32.893c-0.416-0.815-0.879-1.165-1.649-1.638c-0.093,0.897-0.096,1.476,0.298,2.3
	c0.214-0.045,0.541,1.783,1.065,2.048c-1.395,0.677-1.766,2.164-1.738,2.047c-0.477,0.104-0.474,5.305-0.407,6.15
	c0.014,0.896,0.169,1.284,0.465,2.191c0.622-0.588,1.039-1.208,1.038-2.149c-0.046-1.13-0.039-5.885,0.313-5.666
	c0.006,0.017,0.267-1.06,1.288-1.327C107.242,33.799,105.483,33.731,105.601,32.893z"/>
<path fill="#AEAEAE" d="M94.285,65.109l-0.127,3.368l-0.13,3.465l-0.046,1.224c-0.644-1.214-1.155-2.629-1.743-3.878
	c-0.386-0.858-0.888-1.887-1.464-2.743l-0.211-0.279c-2.676,0.287-0.813,0.264-1.442,0.411l-0.246,0.609
	c-0.174,0.547-0.267,0.747-0.434,1.284c-0.639,2.399-1.183,4.131-1.416,4.732c-0.343-0.683-0.701-1.577-1.072-2.694
	c-0.337-0.886-0.559-1.51-0.946-2.543c-0.104-0.219-0.167-0.374-0.268-0.628l-0.034-0.084l-0.005-0.011
	c-2.842,0.12-0.79,0.04-1.425,0.07l-0.006,0.022l-0.013,0.044l-0.054,0.175c-0.043,0.144-0.058,0.176-0.123,0.414
	c-0.097,0.496-0.214,0.903-0.364,1.439c-0.513,2.071-0.946,4.22-1.783,6.288c-0.012,0.022-0.031,0.055-0.048,0.087
	c-0.325-0.294-0.517-0.598-0.856-1.127c-0.384-0.822-0.847-2.046-1.211-3.071c-0.348-1.029-0.728-2.168-1.112-3.181
	c-0.107-0.285-0.178-0.484-0.303-0.804l-0.159-0.37l-0.079-0.185c0,0-1.549,0.102-1.454,0.095l-0.369,1.702
	c-0.641,4.077-1.136,7.26-1.695,8.844c-0.095-0.257-0.176-0.516-0.292-0.842c-0.419-1.252-0.788-2.243-1.129-3.398
	c-0.615-1.821-1.189-3.559-1.931-5.495c-0.091-0.237-0.369-1.054-0.381-1.099c0.047-0.004,0.863-0.014,1.102-0.006
	c4.553,0.157,8.011,0.147,13.724-0.43c1.614-0.275,5.06-0.524,9.035-1.666c0.175-0.04,0.37-0.103,0.567-0.172
	C94.394,64.878,94.416,65.056,94.285,65.109z"/>
</svg>
