<?xml version="1.0" encoding="utf-8"?>
<!-- Generator: Adobe Illustrator 17.0.0, SVG Export Plug-In . SVG Version: 6.00 Build 0)  -->
<!DOCTYPE svg PUBLIC "-//W3C//DTD SVG 1.1//EN" "http://www.w3.org/Graphics/SVG/1.1/DTD/svg11.dtd">
<svg version="1.1" id="Layer_1" xmlns="http://www.w3.org/2000/svg" xmlns:xlink="http://www.w3.org/1999/xlink" x="0px" y="0px"
	 width="75.666px" height="61.365px" viewBox="0 0 75.666 61.365" enable-background="new 0 0 75.666 61.365" xml:space="preserve">
<path fill="#FFFFFF" d="M66.782,9.73c3.404-2.096,5.663-4.949,6.751-8.558c-3.305,1.765-6.588,2.953-9.872,3.609
	C60.708,1.623,56.951,0,52.475,0c-4.392,0-8.086,1.539-11.101,4.534c-3.016,3.021-4.534,6.672-4.534,10.944
	c0,1.313,0.163,2.459,0.489,3.447C24.404,18.493,13.707,13.113,5.275,2.79c-1.44,2.527-2.133,5.112-2.133,7.76
	c0,5.48,2.296,9.809,6.893,12.993c-2.627-0.226-4.923-0.883-6.893-1.97c0,3.898,1.124,7.161,3.446,10.035
	c2.296,2.832,5.254,4.639,8.884,5.417c-1.314,0.331-2.706,0.494-4.124,0.494c-1.313,0-2.238-0.105-2.79-0.352
	c0.962,3.184,2.79,5.769,5.438,7.739c2.627,1.991,5.643,3.037,9.031,3.121c-5.585,4.392-11.984,6.567-19.229,6.567
	c-1.786,0-3.037-0.021-3.798-0.147c7.14,4.618,15.063,6.919,23.847,6.919c9.01,0,16.954-2.28,23.847-6.835
	c6.919-4.513,12.026-10.119,15.31-16.707c3.283-6.567,4.928-13.397,4.928-20.543v-1.97c3.179-2.401,5.763-5.107,7.734-8.086
	C72.792,8.459,69.839,9.299,66.782,9.73L66.782,9.73z M66.782,9.73"/>
</svg>
