<?xml version="1.0" encoding="utf-8"?>
<!-- Generator: Adobe Illustrator 17.0.0, SVG Export Plug-In . SVG Version: 6.00 Build 0)  -->
<!DOCTYPE svg PUBLIC "-//W3C//DTD SVG 1.1//EN" "http://www.w3.org/Graphics/SVG/1.1/DTD/svg11.dtd">
<svg version="1.1" id="Layer_1" xmlns="http://www.w3.org/2000/svg" xmlns:xlink="http://www.w3.org/1999/xlink" x="0px" y="0px"
	 width="190.301px" height="110px" viewBox="0 0 190.301 110" enable-background="new 0 0 190.301 110" xml:space="preserve">
<path fill="#FFFFFF" d="M182.027,85.797c-4.143-4.975-8.852-9.433-13.405-13.743c-1.619-1.534-3.294-3.117-4.908-4.696
	c-4.632-4.53-4.801-6.23-1.133-11.376c2.537-3.545,5.23-7.097,7.832-10.533c2.36-3.115,4.801-6.337,7.141-9.571l0.481-0.665
	c4.471-6.188,9.095-12.584,11.556-20.303c0.639-2.036,1.31-5.031-0.225-7.538c-1.532-2.501-4.507-3.266-6.612-3.621
	c-1.041-0.177-2.074-0.202-3.034-0.202l-29.28-0.02l-0.243-0.003c-4.428,0-7.41,2.087-9.121,6.379
	c-1.632,4.103-3.425,8.469-5.471,12.623c-4.071,8.269-9.243,17.793-16.725,25.737l-0.317,0.338
	c-0.883,0.949-1.885,2.026-2.616,2.026c-0.113,0-0.232-0.024-0.373-0.067c-1.55-0.604-2.588-4.355-2.542-6.1
	c0-0.026,0.003-0.049,0.003-0.072l-0.02-33.845c0-0.115-0.01-0.233-0.026-0.348c-0.744-5.502-2.394-8.926-8.626-10.149
	C104.194,0.016,104.026,0,103.857,0H73.408c-4.959,0-7.693,2.016-10.261,5.034c-0.693,0.808-2.138,2.486-1.421,4.524
	c0.726,2.066,3.082,2.509,3.849,2.652c3.811,0.724,5.957,3.054,6.566,7.126c1.061,7.069,1.192,14.614,0.409,23.745
	c-0.217,2.54-0.648,4.499-1.358,6.174c-0.166,0.392-0.75,1.665-1.348,1.665c-0.189,0-0.737-0.074-1.736-0.762
	c-2.361-1.617-4.09-3.926-6.103-6.778c-6.854-9.686-12.607-20.357-17.589-32.628c-1.846-4.517-5.297-7.046-9.719-7.121
	c-4.86-0.074-9.264-0.11-13.466-0.11c-4.591,0-8.847,0.044-13.001,0.131C4.671,3.714,2.207,4.78,0.914,6.824
	c-1.297,2.044-1.213,4.729,0.25,7.98c11.717,26.047,22.339,44.984,34.444,61.407c8.481,11.489,16.99,19.443,26.771,25.029
	c10.305,5.895,21.855,8.76,35.305,8.76c1.525,0,3.103-0.035,4.691-0.11c7.817-0.381,10.717-3.21,11.083-10.821
	c0.174-3.887,0.601-7.967,2.512-11.445c1.207-2.192,2.333-2.192,2.704-2.192c0.711,0,1.594,0.327,2.542,0.941
	c1.703,1.11,3.161,2.599,4.358,3.898c1.126,1.235,2.238,2.484,3.35,3.729c2.404,2.693,4.89,5.478,7.489,8.118
	c5.683,5.783,11.947,8.328,19.139,7.775h26.845c0.059,0,0.115-0.003,0.172-0.005c2.675-0.177,4.993-1.66,6.358-4.072
	c1.691-2.988,1.655-6.796-0.092-10.193C186.853,91.782,184.28,88.498,182.027,85.797L182.027,85.797z"/>
</svg>
