<?xml version="1.0" encoding="utf-8"?>
<!-- Generator: Adobe Illustrator 17.0.0, SVG Export Plug-In . SVG Version: 6.00 Build 0)  -->
<!DOCTYPE svg PUBLIC "-//W3C//DTD SVG 1.1//EN" "http://www.w3.org/Graphics/SVG/1.1/DTD/svg11.dtd">
<svg version="1.1" id="Layer_1" xmlns="http://www.w3.org/2000/svg" xmlns:xlink="http://www.w3.org/1999/xlink" x="0px" y="0px"
	 width="187.368px" height="42.833px" viewBox="0 0 187.368 42.833" enable-background="new 0 0 187.368 42.833"
	 xml:space="preserve">
<path d="M182.903,17.153h-12.282V4.466l0,0v0c0-1.696-0.945-3.171-2.337-3.927C167.651,0.195,166.926,0,166.155,0h-41.209
	c-1.084,0-2.078,0.387-2.852,1.029c-0.575,0.376-1.074,0.888-1.437,1.526l-13.968,25.917L94.082,3.726
	c-0.23-0.959-0.774-1.838-1.588-2.474c-1.307-1.183-3.247-1.527-4.932-0.716c-1.427,0.686-2.32,2.032-2.496,3.496L71.894,28.472
	L58.726,2.625c-0.478-0.993-1.276-1.727-2.21-2.143C55.912,0.176,55.23,0,54.506,0H21.214c-0.771,0-1.496,0.195-2.129,0.539
	c-1.392,0.756-2.337,2.231-2.337,3.927v0l0,0v12.687H4.466C1.999,17.153,0,19.153,0,21.619c0,2.467,1.999,4.466,4.466,4.466h12.281
	v12.282c0,2.466,1.999,4.466,4.466,4.466c2.466,0,4.466-1.999,4.466-4.466V26.085h21.214c2.466,0,4.466-1.999,4.466-4.466
	c0-2.466-1.999-4.466-4.466-4.466H25.679V8.932h26.239l15.71,30.837c0.111,0.278,0.251,0.544,0.417,0.796
	c1.161,1.991,3.674,2.79,5.787,1.773c1.323-0.636,2.186-1.84,2.446-3.179l13.281-24.643l12.865,25.254
	c0.111,0.277,0.25,0.542,0.416,0.794c1.16,1.992,3.674,2.79,5.787,1.774c1.323-0.636,2.185-1.839,2.445-3.178l16.291-30.229h34.326
	v8.221h-29.74c-2.399,0-4.349,1.891-4.456,4.263h-0.01v16.695c0,2.467,1.999,4.466,4.466,4.466h32.728
	c0.463,0.163,0.959,0.014,1.478,0.014c2.466,0,4.466-1.999,4.466-4.466v-12.04h12.282c2.466,0,4.466-1.999,4.466-4.466
	C187.368,19.153,185.369,17.153,182.903,17.153z M161.689,33.646h-25.477v-7.56h25.477V33.646z"/>
</svg>
