<?xml version="1.0" encoding="utf-8"?>
<!-- Generator: Adobe Illustrator 17.0.0, SVG Export Plug-In . SVG Version: 6.00 Build 0)  -->
<!DOCTYPE svg PUBLIC "-//W3C//DTD SVG 1.1//EN" "http://www.w3.org/Graphics/SVG/1.1/DTD/svg11.dtd">
<svg version="1.1" id="Layer_2" xmlns="http://www.w3.org/2000/svg" xmlns:xlink="http://www.w3.org/1999/xlink" x="0px" y="0px"
	 width="190.825px" height="181.668px" viewBox="-52.913 -47.751 190.825 181.668"
	 enable-background="new -52.913 -47.751 190.825 181.668" xml:space="preserve">
<path d="M8.624-35.134c1.083-6.599,8.914-12.946,15.959-12.603C22.905-40.157,14.73-35.528,8.624-35.134z M19.703-26.396
	c-5.909-4.53-18.32-4.333-24.642,0.656C0.395-21.869,13.597-22.26,19.703-26.396z M7.466-18.595
	c-6.646-3.363-18.808-0.877-24.104,5.19C-10.677-10.58,2.225-13.405,7.466-18.595z M-30.609,3.829
	c7.343,1.239,18.225-4.74,21.479-12.101C-17.382-9.239-27.146-2.683-30.609,3.829z M-30.014-20.956
	c-5.061,6.262-5.405,18.663-0.936,24.624C-26.748-2.385-26.203-15.576-30.014-20.956z M-14.234-36.987
	c-5.283,5.601-6.515,17.404-2.693,23.414C-12.472-19.038-10.986-31.58-14.234-36.987z M5.725-47.645
	C-1.387-44.146-6.83-33.208-5.313-26.039C0.956-29.703,6.908-41.258,5.725-47.645z M-35.789,25.627
	c7.967-1.113,17.223-10.809,18.179-19.455C-26.149,7.301-34.342,17.798-35.789,25.627z M-43.062,0.559
	c-3.087,7.874,0.5,20.396,6.859,24.95C-33.908,18.117-37.542,4.736-43.062,0.559z M-36.235,49.444
	c7.788-3.711,14.122-16.621,12.307-25.766C-32.676,28.811-37.287,40.968-36.235,49.444z M-29.679,72.384
	c6.886-5.701,9.98-20.28,5.839-29.007C-30.41,49.268-32.884,64.134-29.679,72.384z M-18.087,92.243
	c4.993-7.277,3.98-21.963-2.32-29.134C-25.362,72.872-23.368,85.276-18.087,92.243z M-1.593,108.152
	c2.345-7.725-2.585-20.239-10.059-24.753C-13.049,93.179-8.119,103.527-1.593,108.152z M39.013,124.366
	c-1.176-8.021-11.018-17.293-19.744-18.197C21.08,114.886,31.105,122.962,39.013,124.366z M16.702,119.095
	c0.925-7.268-5.391-17.727-12.768-20.635C3.869,107.503,10.155,115.952,16.702,119.095z M-49.17,24.958
	c-1.556,8.824,4.79,21.088,12.347,24.489C-35.986,41.289-42.56,28.144-49.17,24.958z M-52.913,50.875
	c1.716,10.165,13.331,21.013,22.831,21.784C-32.323,63.494-44.521,51.784-52.913,50.875z M-29.27,103.665
	c6.221,6.56,19.977,8.772,27.268,4.679C-8.121,102.777-22.725,100.226-29.27,103.665z M12.412,132.935
	c8.525,3.019,21.782-1.257,26.42-8.211C30.854,122.541,16.679,126.897,12.412,132.935z M-45.281,78.557
	c4.256,8.887,17.777,15.785,26.709,13.996C-23.049,84.719-37.339,77.178-45.281,78.557z M-10.586,121.485
	c7.494,4.783,21.151,3.627,27.139-2.001C9.395,115.619-5.152,116.644-10.586,121.485z M76.373-35.134
	c-1.081-6.599-8.912-12.946-15.956-12.603C62.208-40.157,70.27-35.528,76.373-35.134z M89.94-25.741
	c-6.325-4.989-18.736-5.185-24.647-0.656C71.405-22.26,84.605-21.869,89.94-25.741z M101.638-13.405
	c-5.296-6.067-17.458-8.553-24.102-5.19C82.775-13.405,95.677-10.58,101.638-13.405z M94.132-8.271
	c3.254,7.361,14.134,13.34,21.476,12.101C112.146-2.683,102.379-9.239,94.132-8.271z M115.948,3.669
	c4.469-5.961,4.127-18.363-0.934-24.624C111.203-15.576,111.746-2.385,115.948,3.669z M101.929-13.572
	c3.817-6.011,2.583-17.813-2.698-23.414C95.986-31.58,97.472-19.038,101.929-13.572z M90.315-26.039
	c1.513-7.169-3.93-18.107-11.042-21.605C78.094-41.258,84.044-29.703,90.315-26.039z M102.612,6.172
	c0.952,8.645,10.208,18.342,18.175,19.455C119.344,17.798,111.149,7.301,102.612,6.172z M121.201,25.509
	c6.355-4.554,9.946-17.076,6.859-24.95C122.54,4.736,118.908,18.117,121.201,25.509z M108.931,23.678
	c-1.818,9.145,4.516,22.055,12.304,25.766C122.287,40.968,117.673,28.811,108.931,23.678z M108.843,43.377
	c-4.141,8.727-1.049,23.306,5.837,29.007C117.884,64.134,115.41,49.268,108.843,43.377z M105.407,63.11
	c-6.303,7.171-7.313,21.856-2.32,29.134C108.368,85.276,110.36,72.872,105.407,63.11z M96.647,83.399
	c-7.469,4.514-12.399,17.028-10.061,24.753C93.117,103.527,98.049,93.179,96.647,83.399z M65.729,106.169
	c-8.724,0.905-18.566,10.176-19.742,18.197C53.895,122.962,63.92,114.886,65.729,106.169z M81.066,98.46
	c-7.379,2.908-13.697,13.367-12.77,20.635C74.845,115.952,81.131,107.503,81.066,98.46z M121.818,49.446
	c7.562-3.401,13.905-15.665,12.349-24.489C127.556,28.144,120.984,41.289,121.818,49.446z M115.082,72.659
	c9.5-0.771,21.112-11.619,22.831-21.784C129.523,51.784,117.32,63.494,115.082,72.659z M87.002,108.344
	c7.291,4.093,21.047,1.881,27.266-4.679C107.723,100.226,93.119,102.777,87.002,108.344z M46.166,124.723
	c4.64,6.954,17.897,11.23,26.422,8.211C68.318,126.897,54.146,122.541,46.166,124.723z M103.573,92.553
	c8.93,1.789,22.451-5.108,26.707-13.996C122.341,77.178,108.049,84.719,103.573,92.553z M68.445,119.484
	c5.99,5.629,19.642,6.784,27.139,2.001C90.152,116.644,75.605,115.619,68.445,119.484z"/>
<path d="M1.185,18.571v17.427h20.146V18.571h5.438v41.652h-5.438V40.694H1.185v19.529h-5.376V18.571H1.185z M34.62,57.009
	c0-2.286,1.545-3.893,3.708-3.893s3.646,1.606,3.646,3.893c0,2.226-1.421,3.894-3.708,3.894
	C36.104,60.903,34.62,59.235,34.62,57.009z M83.998,41.931c-0.31-5.81-0.68-12.793-0.618-17.984h-0.186
	c-1.422,4.882-3.151,10.073-5.253,15.82l-7.354,20.208h-4.079l-6.736-19.838c-1.978-5.871-3.646-11.247-4.82-16.191h-0.123
	c-0.124,5.191-0.433,12.174-0.804,18.416l-1.112,17.86h-5.129l2.904-41.652h6.859l7.107,20.146
	c1.729,5.129,3.151,9.703,4.202,14.029h0.186c1.05-4.202,2.533-8.775,4.388-14.029l7.415-20.146h6.86l2.595,41.652h-5.253
	L83.998,41.931z"/>
</svg>
